<svg xmlns="http://www.w3.org/2000/svg" version="1.1" xmlns:xlink="http://www.w3.org/1999/xlink" xmlns:svgjs="http://svgjs.com/svgjs" width="3000" height="1000" preserveAspectRatio="none" viewBox="0 0 3000 1000"><g mask="url(&quot;#SvgjsMask1068&quot;)" fill="none"><rect width="3000" height="1000" x="0" y="0" fill="rgba(14, 215, 92, 1)"></rect><path d="M0,1003.574C260.534,1003.686,508.274,1265.449,748.599,1164.842C985.443,1065.693,1068.063,768.079,1146.533,523.604C1218.638,298.96,1229.918,60.676,1176.792,-169.197C1126.547,-386.605,977.742,-554.394,854.418,-740.357C711.363,-956.073,634.813,-1248.396,395.576,-1347.209C154.124,-1446.937,-127.077,-1351.329,-365.314,-1244.147C-584.395,-1145.583,-756.32,-970.428,-888.211,-769.639C-1008.442,-586.6,-1039.412,-370.459,-1080.502,-155.353C-1123.621,70.37,-1190.295,295.114,-1134.174,517.96C-1071.631,766.305,-983.614,1063.399,-748.187,1164.201C-508.851,1266.676,-260.351,1003.462,0,1003.574" fill="#0dcc57"></path><path d="M3000 1837.6779999999999C3155.962 1840.854 3221.734 1631.6109999999999 3342.295 1532.621 3444.993 1448.298 3600.87 1420.489 3655.581 1299.394 3710.261 1178.365 3654.96 1039.376 3623.428 910.365 3594.618 792.49 3543.096 687.567 3480.618 583.5419999999999 3405.7 458.80600000000004 3349.715 313.049 3222.383 242.63400000000001 3083.919 166.063 2913.959 145.62 2760.842 185.50400000000002 2605.682 225.91999999999996 2452.378 319.47 2379.369 462.22 2309.645 598.547 2412.434 760.83 2389.187 912.178 2365.583 1065.85 2179.073 1203.9850000000001 2243.717 1345.383 2308.37 1486.8 2536.232 1434.029 2666.55 1518.858 2798.095 1604.4859999999999 2843.074 1834.482 3000 1837.6779999999999" fill="#0fe261"></path></g><defs><mask id="SvgjsMask1068"><rect width="3000" height="1000" fill="#ffffff"></rect></mask></defs></svg>